<?xml version="1.0" encoding="utf-8"?>
<!-- Generator: Adobe Illustrator 19.0.0, SVG Export Plug-In . SVG Version: 6.00 Build 0)  -->
<svg version="1.1" id="Capa_1" xmlns="http://www.w3.org/2000/svg" xmlns:xlink="http://www.w3.org/1999/xlink" x="0px" y="0px"
	 viewBox="-177 269 256 256" style="enable-background:new -177 269 256 256;" xml:space="preserve">
<style type="text/css">
	.st0{fill:#FFFFFF;}
</style>
<g>
	<path class="st0" d="M39.9,311.6C23.3,303.8,5.6,298.2-13,295c-2.3,4.1-4.9,9.6-6.8,14c-19.7-3-39.2-3-58.5,0
		c-1.8-4.4-4.6-9.9-6.8-14c-18.5,3.2-36.3,8.9-52.9,16.6c-33.4,50.5-42.5,99.8-38,148.3c22.2,16.6,43.7,26.6,64.8,33.2
		c5.2-7.2,9.9-14.8,13.9-22.8c-7.6-2.9-14.9-6.5-21.8-10.6c1.8-1.4,3.6-2.8,5.4-4.2c42.1,19.7,87.9,19.7,129.5,0
		c1.8,1.5,3.5,2.9,5.4,4.2c-6.9,4.2-14.3,7.8-21.9,10.7c4,8,8.6,15.7,13.9,22.8c21.1-6.6,42.6-16.6,64.8-33.2
		C83.2,403.7,68.8,354.9,39.9,311.6z M-91.5,430.1c-12.6,0-23-11.8-23-26.2c0-14.4,10.1-26.2,23-26.2c12.9,0,23.2,11.8,23,26.2
		C-68.5,418.3-78.7,430.1-91.5,430.1z M-6.5,430.1c-12.6,0-23-11.8-23-26.2c0-14.4,10.1-26.2,23-26.2c12.9,0,23.2,11.8,23,26.2
		C16.5,418.3,6.4,430.1-6.5,430.1z"/>
</g>
</svg>
