<?xml version="1.0" encoding="utf-8"?>
<!-- Generator: Adobe Illustrator 19.0.0, SVG Export Plug-In . SVG Version: 6.00 Build 0)  -->
<svg version="1.1" id="Capa_1" xmlns="http://www.w3.org/2000/svg" xmlns:xlink="http://www.w3.org/1999/xlink" x="0px" y="0px"
	 viewBox="-81 141 448 512" style="enable-background:new -81 141 448 512;" xml:space="preserve">
<style type="text/css">
	.st0{fill:#00002E;}
</style>
<path class="st0" d="M335,173H-49.1c-17.6,0-31.9,14.5-31.9,32.3v383.4c0,17.8,14.3,32.3,31.9,32.3H335c17.6,0,32-14.5,32-32.3
	V205.3C367,187.5,352.6,173,335,173z M54.4,557H-12V343.2h66.5V557H54.4z M21.2,314c-21.3,0-38.5-17.3-38.5-38.5S-0.1,237,21.2,237
	c21.2,0,38.5,17.3,38.5,38.5C59.7,296.8,42.5,314,21.2,314z M303.3,557h-66.4V453c0-24.8-0.5-56.7-34.5-56.7
	c-34.6,0-39.9,27-39.9,54.9V557H96.1V343.2h63.7v29.2h0.9c8.9-16.8,30.6-34.5,62.9-34.5c67.2,0,79.7,44.3,79.7,101.9V557z"/>
</svg>
