<?xml version="1.0" encoding="utf-8"?>
<!-- Generator: Adobe Illustrator 19.0.0, SVG Export Plug-In . SVG Version: 6.00 Build 0)  -->
<svg version="1.1" id="Layer_1" xmlns="http://www.w3.org/2000/svg" xmlns:xlink="http://www.w3.org/1999/xlink" x="0px" y="0px"
	 viewBox="-53 145.1 503.9 503.9" style="enable-background:new -53 145.1 503.9 503.9;" xml:space="preserve">
<style type="text/css">
	.st0{fill:#FFFFFF;}
</style>
<g>
	<g>
		<path class="st0" d="M198.9,311.1c-47.4,0-86,38.6-86,86c0,47.4,38.6,86,86,86s86-38.6,86-86S246.3,311.1,198.9,311.1z
			 M198.9,476.5c-43.8,0-79.5-35.7-79.5-79.5s35.7-79.5,79.5-79.5c43.8,0,79.5,35.7,79.5,79.5C278.4,440.9,242.8,476.5,198.9,476.5z
			"/>
	</g>
</g>
<g>
	<g>
		<path class="st0" d="M198.9,384.2c-7.1,0-12.9,5.8-12.9,12.9c0,7.1,5.8,12.9,12.9,12.9c7.1,0,12.9-5.8,12.9-12.9
			S206,384.2,198.9,384.2z M198.9,403.5c-3.5,0-6.4-2.9-6.4-6.4s2.9-6.4,6.4-6.4c3.5,0,6.4,2.9,6.4,6.4
			C205.3,400.6,202.5,403.5,198.9,403.5z"/>
	</g>
</g>
<g>
	<g>
		<path class="st0" d="M198.9,368.3c-15.9,0-28.8,12.9-28.8,28.8s12.9,28.8,28.8,28.8s28.8-12.9,28.8-28.8S214.8,368.3,198.9,368.3z
			 M198.9,419.3c-12.3,0-22.3-10-22.3-22.3s10-22.3,22.3-22.3s22.3,10,22.3,22.3S211.2,419.3,198.9,419.3z"/>
	</g>
</g>
<g>
	<g>
		<path class="st0" d="M205.5,390.4c-3.5-3.5-9.6-3.5-13.1,0c-1.8,1.8-2.7,4.1-2.7,6.6c0,2.5,1,4.8,2.7,6.6c1.8,1.8,4.1,2.7,6.6,2.7
			s4.8-1,6.6-2.7c1.8-1.8,2.7-4.1,2.7-6.6C208.2,394.5,207.3,392.2,205.5,390.4z M200.9,399c-1.1,1.1-2.9,1.1-4,0
			c-0.5-0.5-0.8-1.2-0.8-2s0.3-1.5,0.8-2c0.5-0.5,1.2-0.8,2-0.8c0.8,0,1.5,0.3,2,0.8c0.5,0.5,0.8,1.2,0.8,2
			C201.8,397.8,201.5,398.5,200.9,399z"/>
	</g>
</g>
<g>
	<g>
		<g>
			<path class="st0" d="M101.2,463.5c-1.5,1.1-1.8,3.1-0.7,4.5c0.6,0.9,1.7,1.3,2.7,1.3c0.6,0,1.3-0.2,1.9-0.6c1.5-1,1.8-3,0.7-4.5
				C104.7,462.8,102.7,462.5,101.2,463.5z"/>
			<path class="st0" d="M109.1,473.8c-1.3,1.2-1.4,3.2-0.2,4.6c0.6,0.7,1.5,1.1,2.4,1.1c0.8,0,1.6-0.3,2.2-0.8
				c1.3-1.2,1.4-3.3,0.2-4.6C112.5,472.7,110.4,472.6,109.1,473.8z"/>
			<path class="st0" d="M147.3,287.3c-1.6,0.7-2.3,2.7-1.6,4.3c0.6,1.2,1.7,1.9,2.9,1.9c0.5,0,0.9-0.1,1.4-0.3
				c1.6-0.8,2.3-2.7,1.6-4.3C150.8,287.2,148.9,286.5,147.3,287.3z"/>
			<path class="st0" d="M99,453.7c-0.9-1.6-2.9-2.1-4.4-1.2c-1.6,0.9-2.1,2.9-1.2,4.4c0.6,1.1,1.7,1.7,2.8,1.7
				c0.6,0,1.1-0.1,1.6-0.4C99.3,457.2,99.8,455.2,99,453.7L99,453.7L99,453.7z"/>
			<path class="st0" d="M93.4,442.4c-0.7-1.7-2.6-2.4-4.2-1.7c-1.7,0.7-2.4,2.6-1.7,4.2c0.5,1.2,1.7,2,3,2c0.4,0,0.9-0.1,1.3-0.3
				C93.3,445.9,94.1,444,93.4,442.4z"/>
			<path class="st0" d="M89.1,430.5c-0.5-1.7-2.3-2.7-4-2.2s-2.7,2.3-2.2,4c0.4,1.4,1.7,2.3,3.1,2.3c0.3,0,0.6,0,0.9-0.1
				C88.6,434,89.6,432.3,89.1,430.5z"/>
			<path class="st0" d="M157.5,504.3c-1.7-0.6-3.6,0.2-4.2,1.8c-0.6,1.7,0.2,3.5,1.9,4.2c0.4,0.2,0.8,0.2,1.2,0.2
				c1.3,0,2.5-0.8,3-2.1C160,506.8,159.2,504.9,157.5,504.3z"/>
			<path class="st0" d="M119.2,310c-1.3-1.3-3.3-1.3-4.6-0.1c-1.3,1.2-1.3,3.3-0.1,4.6c0.6,0.6,1.5,1,2.3,1c0.8,0,1.6-0.3,2.3-0.9
				C120.4,313.3,120.4,311.3,119.2,310z"/>
			<path class="st0" d="M135.2,492.7c-1.5-1-3.5-0.6-4.5,0.9c-1,1.5-0.6,3.5,0.9,4.5c0.6,0.4,1.2,0.6,1.8,0.6c1,0,2.1-0.5,2.7-1.5
				C137.1,495.7,136.7,493.7,135.2,492.7z"/>
			<path class="st0" d="M146,499.1c-1.6-0.8-3.5-0.2-4.3,1.4c-0.8,1.6-0.2,3.5,1.4,4.4c0.5,0.2,1,0.4,1.5,0.4c1.2,0,2.3-0.6,2.9-1.7
				C148.3,501.9,147.6,499.9,146,499.1z"/>
			<path class="st0" d="M135.6,293.6c-1.6,0.9-2,2.9-1.1,4.4c0.6,1,1.7,1.6,2.8,1.6c0.6,0,1.2-0.2,1.7-0.5c1.5-0.9,2-2.9,1.1-4.4
				S137.1,292.7,135.6,293.6z"/>
			<path class="st0" d="M120.6,485.5c-1.1,1.4-1,3.4,0.4,4.5c0.6,0.5,1.4,0.8,2.1,0.8c0.9,0,1.8-0.4,2.5-1.2c1.2-1.4,1-3.4-0.4-4.6
				C123.8,484,121.7,484.1,120.6,485.5z"/>
			<path class="st0" d="M124.6,301.2c-1.4,1.1-1.7,3.1-0.6,4.6c0.6,0.8,1.6,1.3,2.6,1.3c0.7,0,1.4-0.2,2-0.7
				c1.4-1.1,1.7-3.1,0.6-4.5C128.1,300.3,126,300.1,124.6,301.2z"/>
			<path class="st0" d="M110.1,319.3c-1.4-1.1-3.4-0.9-4.6,0.4c-1.1,1.4-0.9,3.4,0.4,4.6c0.6,0.5,1.4,0.7,2.1,0.7
				c0.9,0,1.8-0.4,2.5-1.2C111.6,322.4,111.5,320.4,110.1,319.3z"/>
			<path class="st0" d="M304,346.4c0.5,0,1-0.1,1.5-0.4c1.6-0.8,2.2-2.8,1.4-4.3c-0.8-1.6-2.8-2.2-4.4-1.4c-1.6,0.8-2.2,2.8-1.4,4.4
				C301.7,345.8,302.8,346.4,304,346.4z"/>
			<path class="st0" d="M306.3,356.1c0.5,1.3,1.7,2.1,3,2.1c0.4,0,0.8-0.1,1.2-0.2c1.7-0.6,2.5-2.5,1.9-4.2
				c-0.6-1.7-2.5-2.5-4.2-1.9C306.5,352.6,305.6,354.5,306.3,356.1z"/>
			<path class="st0" d="M297.5,335.2c0.6,0,1.2-0.2,1.8-0.5c1.5-1,1.9-3,0.9-4.5c-1-1.5-3-1.9-4.5-0.9c-1.5,1-1.9,3-0.9,4.5
				C295.4,334.7,296.4,335.2,297.5,335.2z"/>
			<path class="st0" d="M313.7,393c0.1,1.7,1.5,3.1,3.2,3.1c0,0,0.1,0,0.1,0c1.8,0,3.2-1.6,3.1-3.3c-0.1-1.8-1.6-3.2-3.3-3.1
				C315,389.7,313.7,391.2,313.7,393z"/>
			<path class="st0" d="M310.1,368.1c0.4,1.5,1.7,2.4,3.1,2.4c0.3,0,0.6,0,0.8-0.1c1.7-0.5,2.8-2.2,2.3-4c-0.5-1.7-2.2-2.8-4-2.3
				C310.7,364.6,309.7,366.4,310.1,368.1z"/>
			<path class="st0" d="M289.7,324.8c0.7,0,1.5-0.3,2.1-0.8c1.4-1.1,1.6-3.2,0.4-4.5c-1.1-1.4-3.2-1.6-4.5-0.4
				c-1.4,1.1-1.6,3.2-0.4,4.6C287.9,324.4,288.8,324.8,289.7,324.8z"/>
			<path class="st0" d="M315.3,376.8c-1.8,0.3-3,1.9-2.8,3.7c0.2,1.6,1.6,2.8,3.2,2.8c0.2,0,0.3,0,0.5,0c1.7-0.3,3-1.9,2.7-3.7
				C318.7,377.8,317.1,376.5,315.3,376.8z"/>
			<path class="st0" d="M83.8,370.6c0.3,0.1,0.6,0.1,0.8,0.1c1.5,0,2.8-1,3.1-2.4c0.5-1.7-0.6-3.5-2.3-4c-1.7-0.5-3.5,0.6-4,2.3
				C81,368.4,82.1,370.2,83.8,370.6z"/>
			<path class="st0" d="M98.5,334.8c0.6,0.4,1.2,0.6,1.8,0.6c1,0,2.1-0.5,2.7-1.5c1-1.5,0.6-3.5-0.9-4.5c-1.5-1-3.5-0.6-4.5,0.9
				C96.6,331.9,97,333.9,98.5,334.8z"/>
			<path class="st0" d="M81.6,383.4c0.1,0,0.3,0,0.5,0c1.6,0,3-1.2,3.2-2.8c0.3-1.7-1-3.4-2.8-3.7c-1.8-0.3-3.4,1-3.7,2.8
				C78.6,381.5,79.8,383.1,81.6,383.4z"/>
			<path class="st0" d="M80.8,396.3C80.9,396.3,80.9,396.3,80.8,396.3c1.8,0,3.3-1.4,3.3-3.1c0.1-1.8-1.4-3.3-3.1-3.4
				c-1.8-0.1-3.3,1.4-3.3,3.1S79,396.3,80.8,396.3z"/>
			<path class="st0" d="M81.4,409.3c1.8-0.1,3.1-1.7,3-3.5c-0.1-1.8-1.7-3.1-3.5-3s-3.1,1.7-3,3.5c0.1,1.7,1.5,3,3.2,3
				C81.3,409.3,81.3,409.3,81.4,409.3z"/>
			<path class="st0" d="M87.4,358.2c0.4,0.1,0.7,0.2,1.1,0.2c1.3,0,2.6-0.8,3-2.1c0.6-1.7-0.2-3.6-1.9-4.2c-1.7-0.6-3.6,0.2-4.2,1.9
				C84.8,355.7,85.7,357.5,87.4,358.2z"/>
			<path class="st0" d="M92.3,346.2c0.5,0.2,1,0.4,1.5,0.4c1.2,0,2.3-0.6,2.9-1.8c0.8-1.6,0.2-3.5-1.4-4.3s-3.5-0.2-4.4,1.4
				C90.1,343.5,90.7,345.4,92.3,346.2z"/>
			<path class="st0" d="M83.5,422.1c1.7-0.3,2.9-2,2.6-3.8c-0.4-1.7-2-2.9-3.8-2.6c-1.7,0.3-2.9,2-2.6,3.8c0.3,1.6,1.7,2.7,3.2,2.7
				C83.1,422.2,83.3,422.1,83.5,422.1z"/>
			<path class="st0" d="M284.3,473.9c-1.2,1.3-1.1,3.4,0.3,4.6c0.6,0.6,1.4,0.8,2.2,0.8c0.9,0,1.7-0.4,2.4-1.1
				c1.2-1.3,1.1-3.4-0.3-4.6C287.6,472.5,285.5,472.6,284.3,473.9z"/>
			<path class="st0" d="M275.4,482.8c-1.3,1.2-1.5,3.2-0.3,4.6c0.6,0.7,1.5,1.1,2.4,1.1c0.8,0,1.6-0.3,2.2-0.8
				c1.3-1.2,1.5-3.2,0.3-4.6C278.8,481.7,276.7,481.6,275.4,482.8z"/>
			<path class="st0" d="M283.2,309.8c-1.3-1.2-3.3-1.2-4.6,0.1c-1.2,1.3-1.2,3.3,0.1,4.6c0.6,0.6,1.4,0.9,2.2,0.9
				c0.9,0,1.7-0.3,2.3-1C284.5,313.1,284.4,311,283.2,309.8z"/>
			<path class="st0" d="M273.1,301c-1.4-1.1-3.4-0.8-4.5,0.6c-1.1,1.4-0.8,3.5,0.6,4.6c0.6,0.5,1.3,0.7,2,0.7c1,0,1.9-0.5,2.6-1.3
				C274.8,304.2,274.5,302.1,273.1,301z"/>
			<path class="st0" d="M254.9,497.4c-1.6,0.9-2.1,2.9-1.3,4.4c0.6,1.1,1.7,1.7,2.9,1.7c0.5,0,1.1-0.1,1.6-0.4
				c1.6-0.9,2.1-2.9,1.3-4.4C258.5,497.1,256.5,496.5,254.9,497.4z"/>
			<path class="st0" d="M250.4,287.2c-1.6-0.7-3.5-0.1-4.3,1.6c-0.7,1.6,0,3.6,1.6,4.3c0.4,0.2,0.9,0.3,1.4,0.3
				c1.2,0,2.4-0.7,2.9-1.8C252.7,289.9,252,288,250.4,287.2z"/>
			<path class="st0" d="M265.6,490.7c-1.5,1-1.8,3-0.7,4.5c0.6,0.9,1.6,1.4,2.6,1.4c0.6,0,1.3-0.2,1.9-0.6c1.5-1,1.8-3.1,0.8-4.5
				C269.1,490,267,489.6,265.6,490.7z"/>
			<path class="st0" d="M262.1,293.5c-1.5-0.9-3.5-0.5-4.4,1.1c-0.9,1.5-0.5,3.5,1.1,4.5c0.5,0.3,1.1,0.5,1.7,0.5
				c1.1,0,2.2-0.6,2.8-1.6C264.1,296.4,263.7,294.4,262.1,293.5z"/>
			<path class="st0" d="M159.6,282.3c-1.7,0.6-2.6,2.4-2,4.1c0.5,1.4,1.7,2.2,3,2.2c0.4,0,0.7-0.1,1.1-0.2c1.7-0.6,2.6-2.4,2-4.1
				C163.2,282.6,161.3,281.7,159.6,282.3z"/>
			<path class="st0" d="M312.9,428.2c-1.7-0.5-3.5,0.5-4.1,2.2c-0.5,1.7,0.5,3.5,2.2,4c0.3,0.1,0.6,0.1,0.9,0.1
				c1.4,0,2.7-0.9,3.1-2.3C315.6,430.5,314.7,428.7,312.9,428.2z"/>
			<path class="st0" d="M296.8,463.4c-1.5-1-3.5-0.7-4.5,0.7c-1,1.4-0.7,3.5,0.7,4.5c0.6,0.4,1.2,0.6,1.9,0.6c1,0,2-0.5,2.7-1.4
				C298.6,466.4,298.2,464.4,296.8,463.4z"/>
			<path class="st0" d="M317,402.6c-1.8-0.2-3.3,1.2-3.5,3c-0.1,1.8,1.2,3.3,3,3.5c0.1,0,0.2,0,0.2,0c1.7,0,3.1-1.3,3.2-3
				C320.1,404.3,318.7,402.8,317,402.6z"/>
			<path class="st0" d="M308.9,440.5c-1.7-0.7-3.6,0.1-4.2,1.7c-0.7,1.7,0.1,3.5,1.7,4.2c0.4,0.2,0.8,0.3,1.3,0.3c1.2,0,2.4-0.7,3-2
				C311.3,443.1,310.5,441.2,308.9,440.5z"/>
			<path class="st0" d="M303.4,452.3c-1.6-0.9-3.5-0.3-4.4,1.2c-0.9,1.6-0.3,3.5,1.2,4.4c0.5,0.3,1,0.4,1.6,0.4
				c1.1,0,2.2-0.6,2.8-1.7C305.6,455.1,305,453.1,303.4,452.3z"/>
			<path class="st0" d="M315.6,415.5c-1.7-0.3-3.4,0.8-3.8,2.6c-0.3,1.8,0.8,3.5,2.6,3.8c0.2,0,0.4,0.1,0.6,0.1
				c1.6,0,2.9-1.1,3.2-2.7C318.6,417.6,317.4,415.8,315.6,415.5z"/>
			<path class="st0" d="M185.5,276.5c-1.7,0.2-3,1.8-2.9,3.6c0.2,1.7,1.6,2.9,3.2,2.9c0.1,0,0.3,0,0.4,0c1.8-0.2,3.1-1.8,2.9-3.6
				C188.9,277.6,187.3,276.3,185.5,276.5z"/>
			<path class="st0" d="M181.9,510.7c-1.8-0.3-3.4,0.9-3.7,2.7c-0.3,1.7,0.9,3.4,2.7,3.7c0.2,0,0.3,0,0.5,0c1.6,0,2.9-1.2,3.2-2.8
				C184.9,512.6,183.6,510.9,181.9,510.7z"/>
			<path class="st0" d="M194.4,511.9c-1.8-0.1-3.3,1.3-3.4,3.1c-0.1,1.8,1.3,3.3,3.1,3.4c0.1,0,0.1,0,0.1,0c1.7,0,3.2-1.4,3.3-3.1
				C197.6,513.4,196.2,511.9,194.4,511.9z"/>
			<path class="st0" d="M169.5,508.1c-1.7-0.5-3.5,0.6-4,2.3c-0.5,1.7,0.6,3.5,2.3,4c0.3,0.1,0.6,0.1,0.8,0.1c1.4,0,2.8-1,3.1-2.4
				C172.3,510.3,171.3,508.6,169.5,508.1z"/>
			<path class="st0" d="M243.6,503c-1.6,0.7-2.4,2.6-1.7,4.2c0.5,1.2,1.7,2,3,2c0.4,0,0.9-0.1,1.3-0.3c1.7-0.7,2.4-2.6,1.7-4.2
				C247.2,503,245.3,502.2,243.6,503z"/>
			<path class="st0" d="M198.9,275.8c-1.8,0-3.2,1.5-3.2,3.2c0,1.8,1.5,3.2,3.2,3.2s3.2-1.5,3.2-3.2
				C202.1,277.2,200.6,275.8,198.9,275.8z"/>
			<path class="st0" d="M172.4,278.7c-1.7,0.4-2.8,2.1-2.5,3.9c0.4,1.5,1.7,2.5,3.2,2.5c0.2,0,0.5,0,0.7-0.1
				c1.7-0.4,2.9-2.1,2.5-3.9C175.9,279.4,174.2,278.3,172.4,278.7z"/>
			<path class="st0" d="M231.8,507.2L231.8,507.2c-1.7,0.5-2.7,2.3-2.2,4c0.4,1.4,1.7,2.3,3.1,2.3c0.3,0,0.6,0,0.9-0.1
				c1.7-0.5,2.7-2.3,2.2-4.1C235.3,507.7,233.5,506.7,231.8,507.2z"/>
			<path class="st0" d="M207,511.7c-1.8,0.1-3.1,1.7-3,3.5c0.1,1.7,1.6,3,3.2,3c0.1,0,0.2,0,0.2,0c1.8-0.1,3.1-1.7,3-3.5
				C210.3,512.9,208.8,511.5,207,511.7z"/>
			<path class="st0" d="M238.1,282.2c-1.7-0.6-3.6,0.4-4.1,2c-0.6,1.7,0.3,3.5,2,4.1c0.4,0.1,0.7,0.2,1,0.2c1.4,0,2.6-0.8,3.1-2.2
				C240.7,284.6,239.8,282.8,238.1,282.2z"/>
			<path class="st0" d="M225.3,278.7c-1.7-0.4-3.5,0.7-3.9,2.5s0.7,3.5,2.5,3.9c0.2,0.1,0.5,0.1,0.7,0.1c1.5,0,2.9-1,3.2-2.5
				C228.1,280.8,227,279,225.3,278.7z"/>
			<path class="st0" d="M219.5,510.1c-1.7,0.3-2.9,2-2.6,3.8c0.3,1.6,1.6,2.7,3.2,2.7c0.2,0,0.4,0,0.6-0.1c1.7-0.3,2.9-2,2.6-3.8
				C223,511,221.3,509.8,219.5,510.1z"/>
			<path class="st0" d="M212.1,276.5c-1.8-0.2-3.4,1.1-3.6,2.9c-0.2,1.8,1.1,3.4,2.9,3.6c0.1,0,0.2,0,0.4,0c1.6,0,3-1.2,3.2-2.9
				C215.2,278.3,213.9,276.7,212.1,276.5z"/>
		</g>
	</g>
</g>
<g>
	<g>
		<path class="st0" d="M201.2,394.7c-1.2-1.2-3.3-1.2-4.6,0c-0.6,0.6-0.9,1.5-0.9,2.3c0,0.8,0.3,1.7,0.9,2.3
			c0.6,0.6,1.4,0.9,2.3,0.9c0.8,0,1.7-0.4,2.3-0.9c0.6-0.6,1-1.4,1-2.3C202.2,396.2,201.8,395.4,201.2,394.7z"/>
	</g>
</g>
<g>
	<g>
		<g>
			<path class="st0" d="M82.4,495.2c-1.4,1.2-1.5,3.2-0.3,4.6c0.6,0.7,1.5,1.1,2.4,1.1c0.8,0,1.5-0.3,2.1-0.8
				c1.4-1.2,1.5-3.2,0.3-4.6C85.8,494.2,83.7,494.1,82.4,495.2z"/>
			<path class="st0" d="M93,290.7c0.8,0,1.6-0.3,2.3-0.9c1.3-1.2,1.3-3.3,0-4.6c-1.2-1.3-3.3-1.3-4.6-0.1c-1.3,1.2-1.3,3.3-0.1,4.6
				C91.4,290.3,92.2,290.7,93,290.7z"/>
			<path class="st0" d="M84.2,300c0.9,0,1.8-0.4,2.4-1.1c1.2-1.3,1-3.4-0.3-4.6c-1.4-1.2-3.4-1-4.6,0.3c-1.2,1.4-1,3.4,0.3,4.6
				C82.7,299.8,83.4,300,84.2,300z"/>
			<path class="st0" d="M91.1,504.8c-1.3,1.3-1.2,3.3,0.1,4.6c0.6,0.6,1.5,0.9,2.3,0.9c0.8,0,1.7-0.4,2.3-1c1.3-1.3,1.2-3.3-0.1-4.6
				C94.4,503.4,92.3,503.5,91.1,504.8z"/>
			<path class="st0" d="M74.5,485c-1.5,1-1.7,3.1-0.7,4.5c0.6,0.8,1.6,1.3,2.6,1.3c0.7,0,1.4-0.2,1.9-0.6c1.4-1.1,1.7-3.1,0.7-4.5
				C78,484.3,76,484,74.5,485z"/>
			<path class="st0" d="M102.6,282.1c0.7,0,1.5-0.2,2.1-0.7c1.4-1.1,1.6-3.2,0.5-4.5c-1.1-1.4-3.2-1.6-4.6-0.5
				c-1.4,1.1-1.6,3.2-0.5,4.6C100.8,281.7,101.7,282.1,102.6,282.1z"/>
			<path class="st0" d="M67.6,474.2c-1.5,0.9-2,2.9-1.1,4.5c0.6,1,1.7,1.5,2.8,1.5c0.6,0,1.2-0.2,1.7-0.5c1.5-0.9,2-2.9,1.1-4.4
				C71.1,473.7,69.1,473.2,67.6,474.2z"/>
			<path class="st0" d="M65.9,464.2c-0.8-1.6-2.8-2.2-4.4-1.5c-1.6,0.8-2.2,2.8-1.4,4.4c0.6,1.1,1.7,1.8,2.9,1.8
				c0.5,0,1-0.1,1.5-0.4C66.1,467.8,66.7,465.8,65.9,464.2z"/>
			<path class="st0" d="M74.2,309.5c0.6,0.4,1.3,0.6,1.9,0.6c1,0,2-0.5,2.6-1.3c1.1-1.5,0.7-3.5-0.7-4.5c-1.4-1-3.5-0.7-4.5,0.7
				C72.5,306.4,72.8,308.4,74.2,309.5z"/>
			<path class="st0" d="M148.8,537.9c-1.7-0.6-3.5,0.3-4.1,1.9c-0.6,1.7,0.3,3.5,1.9,4.1c0.4,0.1,0.7,0.2,1.1,0.2
				c1.3,0,2.6-0.8,3.1-2.1C151.4,540.3,150.5,538.5,148.8,537.9z"/>
			<path class="st0" d="M137.1,533.1c-1.6-0.7-3.6,0-4.3,1.6s0,3.6,1.6,4.3c0.5,0.2,0.9,0.3,1.4,0.3c1.2,0,2.4-0.7,2.9-1.9
				C139.5,535.8,138.8,533.8,137.1,533.1z"/>
			<path class="st0" d="M135.3,261.5c0.5,0,0.9-0.1,1.4-0.3c1.6-0.8,2.3-2.7,1.6-4.3c-0.8-1.6-2.7-2.3-4.3-1.6
				c-1.6,0.8-2.3,2.7-1.6,4.3C132.9,260.8,134.1,261.5,135.3,261.5z"/>
			<path class="st0" d="M147.2,256.6c0.4,0,0.7-0.1,1.1-0.2c1.7-0.6,2.5-2.5,1.9-4.1c-0.6-1.7-2.5-2.6-4.1-1.9s-2.6,2.5-1.9,4.1
				C144.6,255.8,145.9,256.6,147.2,256.6z"/>
			<path class="st0" d="M125.9,527.3c-1.6-0.9-3.5-0.3-4.4,1.2c-0.9,1.6-0.3,3.5,1.2,4.4c0.5,0.3,1,0.4,1.6,0.4
				c1.1,0,2.2-0.6,2.8-1.6C128,530.2,127.5,528.2,125.9,527.3z"/>
			<path class="st0" d="M105.1,513.1c-1.4-1.1-3.4-0.9-4.5,0.5c-1.1,1.4-0.9,3.4,0.5,4.5c0.6,0.5,1.3,0.7,2,0.7
				c0.9,0,1.9-0.4,2.5-1.2C106.7,516.2,106.5,514.2,105.1,513.1z"/>
			<path class="st0" d="M112.9,274.3c0.6,0,1.3-0.2,1.8-0.6c1.5-1,1.8-3,0.8-4.5c-1-1.5-3-1.8-4.5-0.8c-1.5,1-1.8,3-0.8,4.5
				C110.9,273.8,111.9,274.3,112.9,274.3z"/>
			<path class="st0" d="M123.9,267.4c0.6,0,1.1-0.1,1.6-0.4c1.6-0.9,2.1-2.9,1.2-4.4c-0.9-1.6-2.9-2.1-4.4-1.2
				c-1.6,0.9-2.1,2.9-1.2,4.4C121.6,266.9,122.7,267.4,123.9,267.4z"/>
			<path class="st0" d="M115.2,520.7c-1.5-1-3.5-0.6-4.5,0.8c-1,1.5-0.6,3.5,0.8,4.5c0.6,0.4,1.2,0.6,1.8,0.6c1,0,2-0.5,2.7-1.4
				C117,523.7,116.7,521.7,115.2,520.7z"/>
			<path class="st0" d="M60.7,452.7c-0.7-1.7-2.6-2.5-4.2-1.8c-1.7,0.6-2.5,2.5-1.8,4.2c0.5,1.3,1.7,2,3,2c0.4,0,0.8-0.1,1.2-0.2
				C60.5,456.3,61.4,454.4,60.7,452.7z"/>
			<path class="st0" d="M334.8,328.5c0.5,0,1-0.1,1.5-0.4c1.6-0.8,2.2-2.8,1.3-4.4c-0.8-1.6-2.8-2.2-4.4-1.4
				c-1.6,0.8-2.2,2.8-1.3,4.4C332.5,327.9,333.7,328.5,334.8,328.5z"/>
			<path class="st0" d="M67.3,320.4c0.6,0.3,1.1,0.5,1.7,0.5c1.1,0,2.2-0.6,2.8-1.6c0.9-1.6,0.4-3.5-1.1-4.5
				c-1.5-0.9-3.5-0.4-4.4,1.1C65.3,317.4,65.8,319.4,67.3,320.4z"/>
			<path class="st0" d="M159.5,252.7c0.3,0,0.6,0,0.8-0.1c1.7-0.5,2.8-2.3,2.3-4c-0.5-1.7-2.3-2.8-4-2.3c-1.7,0.5-2.8,2.2-2.3,4
				C156.7,251.7,158,252.7,159.5,252.7z"/>
			<path class="st0" d="M61.3,331.8c0.5,0.2,1,0.3,1.5,0.3c1.2,0,2.3-0.6,2.9-1.8c0.8-1.6,0.2-3.6-1.5-4.3c-1.6-0.8-3.5-0.2-4.3,1.5
				C59.1,329,59.7,331,61.3,331.8z"/>
			<path class="st0" d="M345.3,362.1c0.4,1.5,1.7,2.5,3.2,2.5c0.2,0,0.5,0,0.7-0.1c1.7-0.4,2.8-2.2,2.4-3.9
				c-0.4-1.7-2.2-2.8-3.9-2.4C346,358.6,344.9,360.4,345.3,362.1z"/>
			<path class="st0" d="M350.5,370.8c-1.8,0.3-3,1.9-2.7,3.7c0.2,1.6,1.6,2.8,3.2,2.8c0.2,0,0.3,0,0.5,0c1.7-0.3,3-1.9,2.7-3.7
				C353.9,371.8,352.2,370.5,350.5,370.8z"/>
			<path class="st0" d="M341.9,350c0.5,1.4,1.7,2.2,3.1,2.2c0.3,0,0.7,0,1-0.2c1.7-0.6,2.6-2.4,2.1-4.1c-0.6-1.7-2.4-2.6-4.1-2.1
				C342.2,346.5,341.3,348.3,341.9,350z"/>
			<path class="st0" d="M56.3,343.7c0.4,0.1,0.8,0.2,1.2,0.2c1.3,0,2.5-0.8,3-2.1h0c0.7-1.7-0.1-3.5-1.8-4.2
				c-1.7-0.7-3.5,0.1-4.2,1.8c0,0,0,0,0,0C53.8,341.1,54.6,343,56.3,343.7z"/>
			<path class="st0" d="M337.4,338.2c0.5,1.2,1.7,1.9,3,1.9c0.4,0,0.9-0.1,1.3-0.3c1.7-0.7,2.4-2.6,1.7-4.2
				c-0.7-1.7-2.6-2.4-4.2-1.7C337.5,334.6,336.7,336.6,337.4,338.2z"/>
			<path class="st0" d="M47,407c1.8-0.1,3.2-1.6,3.1-3.4c-0.1-1.8-1.6-3.2-3.4-3.1c-1.8,0.1-3.2,1.6-3.1,3.4
				c0.1,1.7,1.5,3.1,3.2,3.1C46.9,407,47,407,47,407z"/>
			<path class="st0" d="M52.3,355.9c0.3,0.1,0.6,0.2,0.9,0.2c1.4,0,2.7-0.9,3.1-2.3c0.5-1.7-0.5-3.5-2.2-4c-1.7-0.5-3.5,0.5-4,2.2
				C49.6,353.6,50.6,355.4,52.3,355.9z"/>
			<path class="st0" d="M53.3,428.6c-0.4-1.7-2.1-2.9-3.8-2.5c-1.7,0.4-2.9,2.1-2.5,3.9c0.3,1.5,1.7,2.6,3.2,2.6
				c0.2,0,0.4,0,0.6-0.1C52.6,432.1,53.7,430.4,53.3,428.6z"/>
			<path class="st0" d="M56.5,440.8c-0.5-1.7-2.3-2.7-4-2.2c-1.7,0.6-2.7,2.4-2.1,4c0.4,1.4,1.7,2.3,3.1,2.3c0.3,0,0.6,0,0.9-0.1
				C56.1,444.4,57,442.6,56.5,440.8z"/>
			<path class="st0" d="M48.4,419.8c1.8-0.2,3-1.8,2.8-3.6c-0.2-1.8-1.8-3-3.6-2.8c-1.8,0.2-3,1.8-2.8,3.6c0.2,1.6,1.6,2.8,3.2,2.8
				C48.1,419.9,48.3,419.9,48.4,419.8z"/>
			<path class="st0" d="M46.7,394.1c0,0,0.1,0,0.1,0c1.7,0,3.2-1.4,3.2-3.1c0.1-1.8-1.3-3.3-3.1-3.4c-1.8-0.1-3.3,1.3-3.4,3.1
				C43.6,392.5,45,394,46.7,394.1z"/>
			<path class="st0" d="M49.4,368.5c0.2,0,0.5,0.1,0.7,0.1c1.5,0,2.9-1,3.2-2.6c0.4-1.7-0.7-3.5-2.5-3.9c-1.7-0.4-3.5,0.7-3.8,2.5
				C46.5,366.4,47.6,368.1,49.4,368.5z"/>
			<path class="st0" d="M47.5,381.3c0.1,0,0.3,0,0.4,0c1.6,0,3-1.2,3.2-2.8c0.2-1.8-1.1-3.4-2.8-3.6c-1.8-0.2-3.4,1-3.6,2.8
				C44.5,379.4,45.7,381,47.5,381.3z"/>
			<path class="st0" d="M271,528.7c-1.6,0.9-2.2,2.8-1.3,4.4c0.6,1.1,1.7,1.7,2.9,1.7c0.5,0,1-0.1,1.5-0.4c1.6-0.8,2.2-2.8,1.3-4.4
				C274.5,528.5,272.6,527.9,271,528.7z"/>
			<path class="st0" d="M301.6,506.7c-1.3,1.2-1.4,3.3-0.2,4.6c0.6,0.7,1.5,1,2.4,1c0.8,0,1.6-0.3,2.2-0.9c1.3-1.2,1.4-3.2,0.2-4.6
				C305,505.6,303,505.5,301.6,506.7z"/>
			<path class="st0" d="M320.8,306.9c0.7,0,1.4-0.2,2-0.7c1.4-1.1,1.7-3.1,0.6-4.5c-1.1-1.4-3.1-1.7-4.5-0.6
				c-1.4,1.1-1.7,3.1-0.6,4.6C318.9,306.5,319.9,306.9,320.8,306.9z"/>
			<path class="st0" d="M310.5,497.7c-1.2,1.3-1.1,3.4,0.2,4.6c0.6,0.6,1.4,0.8,2.2,0.8c0.9,0,1.8-0.4,2.4-1.1
				c1.2-1.3,1.1-3.4-0.2-4.6C313.8,496.3,311.7,496.4,310.5,497.7z"/>
			<path class="st0" d="M303.4,287.9c0.9,0,1.7-0.4,2.4-1c1.2-1.3,1.1-3.4-0.2-4.6c-1.3-1.2-3.4-1.1-4.6,0.2
				c-1.2,1.3-1.1,3.4,0.2,4.6C301.9,287.6,302.7,287.9,303.4,287.9z"/>
			<path class="st0" d="M312.6,297c0.8,0,1.6-0.3,2.2-0.8c1.3-1.2,1.4-3.3,0.2-4.6c-1.2-1.3-3.3-1.4-4.6-0.2
				c-1.3,1.2-1.4,3.3-0.2,4.6C310.8,296.7,311.7,297,312.6,297z"/>
			<path class="st0" d="M281.3,271.5c0.6,0.4,1.2,0.6,1.8,0.6c1,0,2.1-0.5,2.7-1.5c1-1.5,0.6-3.5-1-4.5c-1.5-1-3.5-0.6-4.5,0.9
				S279.9,270.6,281.3,271.5z"/>
			<path class="st0" d="M291.6,278.8L291.6,278.8c0.6,0.5,1.3,0.7,2,0.7c0.9,0,1.9-0.5,2.6-1.3c1.1-1.4,0.8-3.4-0.6-4.5
				c-1.4-1.1-3.4-0.8-4.5,0.6C290,275.7,290.2,277.8,291.6,278.8z"/>
			<path class="st0" d="M292,514.9c-1.4,1.1-1.7,3.1-0.5,4.5c0.6,0.8,1.6,1.3,2.5,1.3c0.7,0,1.4-0.2,2-0.7c1.4-1.1,1.7-3.1,0.6-4.5
				S293.5,513.8,292,514.9z"/>
			<path class="st0" d="M281.8,522.3L281.8,522.3c-1.5,1-1.9,3-0.9,4.5c0.6,0.9,1.7,1.5,2.7,1.5c0.6,0,1.2-0.2,1.8-0.5
				c1.5-1,1.9-3,0.9-4.5C285.3,521.7,283.3,521.3,281.8,522.3z"/>
			<path class="st0" d="M341.9,453.7c-1.7-0.7-3.6,0.1-4.2,1.7c-0.7,1.6,0.1,3.5,1.7,4.2c0.4,0.2,0.8,0.3,1.3,0.3c1.3,0,2.5-0.7,3-2
				C344.3,456.3,343.5,454.4,341.9,453.7z"/>
			<path class="st0" d="M160.9,541.7c-1.7-0.5-3.5,0.6-4,2.3c-0.5,1.7,0.6,3.5,2.3,4c0.3,0.1,0.6,0.1,0.8,0.1c1.4,0,2.8-0.9,3.1-2.4
				C163.6,543.9,162.6,542.1,160.9,541.7z"/>
			<path class="st0" d="M346.1,441.5c-1.7-0.6-3.5,0.4-4.1,2.1c-0.6,1.7,0.4,3.5,2.1,4.1c0.4,0.1,0.7,0.2,1,0.2
				c1.4,0,2.7-0.9,3.1-2.2c0,0,0,0,0,0C348.7,443.9,347.8,442,346.1,441.5z"/>
			<path class="st0" d="M351.5,416.3c-1.8-0.3-3.4,1-3.7,2.8c-0.3,1.7,1,3.4,2.8,3.7c0.2,0,0.3,0,0.5,0c1.6,0,3-1.2,3.2-2.8
				C354.5,418.2,353.3,416.5,351.5,416.3z"/>
			<path class="st0" d="M349.4,429c-1.7-0.4-3.5,0.7-3.9,2.4c-0.4,1.7,0.7,3.5,2.4,3.9c0.2,0.1,0.5,0.1,0.7,0.1c1.5,0,2.8-1,3.1-2.5
				C352.2,431.2,351.1,429.4,349.4,429z"/>
			<path class="st0" d="M328.3,317.4c0.6,0,1.2-0.2,1.7-0.5c1.5-1,1.9-3,1-4.5c-1-1.5-3-1.9-4.5-0.9c-1.5,0.9-1.9,2.9-1,4.5
				C326.2,316.9,327.2,317.4,328.3,317.4z"/>
			<path class="st0" d="M330.3,476.7c-1.5-1-3.5-0.6-4.5,1c-1,1.5-0.5,3.5,1,4.5c0.6,0.4,1.1,0.5,1.7,0.5c1.1,0,2.1-0.5,2.7-1.5
				C332.3,479.7,331.8,477.7,330.3,476.7z"/>
			<path class="st0" d="M336.6,465.4c-1.6-0.8-3.5-0.2-4.4,1.4c-0.8,1.6-0.2,3.5,1.4,4.4c0.5,0.3,1,0.4,1.5,0.4
				c1.2,0,2.3-0.6,2.9-1.7C338.8,468.2,338.2,466.3,336.6,465.4z"/>
			<path class="st0" d="M323.1,487.4c-1.4-1.1-3.4-0.8-4.5,0.6c-1.1,1.4-0.8,3.4,0.6,4.5c0.6,0.5,1.3,0.7,1.9,0.7
				c1,0,1.9-0.5,2.6-1.3C324.8,490.6,324.6,488.5,323.1,487.4z"/>
			<path class="st0" d="M185.7,546.1c-1.8-0.2-3.4,1.1-3.5,2.9c-0.2,1.8,1.1,3.4,2.9,3.5c0.1,0,0.2,0,0.3,0c1.7,0,3-1.3,3.2-2.9
				C188.7,547.9,187.5,546.3,185.7,546.1z"/>
			<path class="st0" d="M198.3,546.7c-1.8,0-3.3,1.4-3.3,3.2c0,1.8,1.4,3.2,3.2,3.3h0c1.8,0,3.2-1.5,3.2-3.2
				C201.5,548.2,200.1,546.8,198.3,546.7z"/>
			<path class="st0" d="M197.7,247.4C197.7,247.4,197.7,247.4,197.7,247.4c1.8,0,3.3-1.5,3.2-3.3c0-1.8-1.5-3.2-3.3-3.2
				c-1.8,0-3.2,1.5-3.2,3.3C194.5,245.9,195.9,247.4,197.7,247.4z"/>
			<path class="st0" d="M210.3,247.7c0.1,0,0.2,0,0.2,0c1.7,0,3.1-1.3,3.2-3c0.1-1.8-1.2-3.3-3-3.5c-1.8-0.1-3.3,1.2-3.5,3
				S208.5,247.6,210.3,247.7z"/>
			<path class="st0" d="M184.8,248c0.1,0,0.2,0,0.3,0c1.8-0.2,3.1-1.7,2.9-3.5c-0.2-1.8-1.7-3.1-3.5-2.9c-1.8,0.2-3.1,1.7-2.9,3.5
				C181.8,246.8,183.1,248,184.8,248z"/>
			<path class="st0" d="M270.5,265.1c0.5,0.3,1,0.4,1.5,0.4c1.2,0,2.3-0.6,2.9-1.7c0.8-1.6,0.3-3.6-1.3-4.4
				c-1.6-0.8-3.5-0.2-4.4,1.3C268.3,262.3,268.9,264.2,270.5,265.1z"/>
			<path class="st0" d="M173.2,544.4c-1.7-0.3-3.4,0.9-3.8,2.6c-0.3,1.7,0.8,3.5,2.6,3.8c0.2,0,0.4,0.1,0.6,0.1
				c1.6,0,2.9-1.1,3.2-2.7C176.1,546.4,174.9,544.7,173.2,544.4z"/>
			<path class="st0" d="M210.9,546.3c-1.8,0.1-3.1,1.7-3,3.5c0.1,1.7,1.6,3,3.2,3c0.1,0,0.2,0,0.3,0c1.8-0.2,3.1-1.7,3-3.5
				C214.2,547.5,212.7,546.2,210.9,546.3z"/>
			<path class="st0" d="M172,249.8c0.2,0,0.4,0,0.6,0c1.8-0.3,2.9-2,2.6-3.8c-0.3-1.7-2-2.9-3.8-2.6c-1.7,0.3-2.9,2-2.6,3.8
				C169.1,248.7,170.5,249.8,172,249.8z"/>
			<path class="st0" d="M259.2,259.6c0.4,0.2,0.8,0.3,1.3,0.3c1.3,0,2.5-0.7,3-1.9c0.7-1.7,0-3.6-1.7-4.3c-1.7-0.7-3.5,0.1-4.2,1.7
				C256.8,257,257.5,258.9,259.2,259.6z"/>
			<path class="st0" d="M247.9,538.8c-1.7,0.6-2.6,2.4-2,4.1c0.5,1.4,1.7,2.2,3.1,2.2c0.3,0,0.7-0.1,1-0.2c1.7-0.6,2.6-2.4,2-4.1
				C251.4,539.2,249.6,538.2,247.9,538.8z"/>
			<path class="st0" d="M247.4,255.1c0.4,0.1,0.7,0.2,1,0.2c1.4,0,2.6-0.8,3.1-2.2c0.6-1.7-0.4-3.5-2-4.1c-1.7-0.6-3.5,0.3-4.1,2
				C244.7,252.7,245.7,254.5,247.4,255.1z"/>
			<path class="st0" d="M259.6,534.3c-1.6,0.7-2.4,2.6-1.7,4.2c0.5,1.2,1.7,1.9,2.9,1.9c0.5,0,0.9-0.1,1.3-0.3
				c1.7-0.7,2.4-2.6,1.7-4.3S261.3,533.5,259.6,534.3z"/>
			<path class="st0" d="M222.9,249.1c0.2,0,0.4,0,0.5,0c1.6,0,2.9-1.1,3.2-2.7c0.3-1.8-0.9-3.4-2.7-3.7c-1.8-0.3-3.4,0.9-3.7,2.7
				C219.9,247.2,221.1,248.8,222.9,249.1z"/>
			<path class="st0" d="M223.4,544.9c-1.8,0.3-3,1.9-2.7,3.7c0.3,1.6,1.6,2.7,3.2,2.7c0.2,0,0.3,0,0.5,0c1.8-0.3,3-1.9,2.7-3.7
				C226.9,545.8,225.2,544.6,223.4,544.9z"/>
			<path class="st0" d="M235.2,251.6c0.3,0.1,0.5,0.1,0.8,0.1c1.5,0,2.8-1,3.1-2.5c0.4-1.7-0.6-3.5-2.4-3.9
				c-1.7-0.4-3.5,0.6-3.9,2.4C232.4,249.4,233.5,251.1,235.2,251.6z"/>
			<path class="st0" d="M235.8,542.4c-1.7,0.4-2.8,2.2-2.4,3.9c0.4,1.5,1.7,2.5,3.2,2.5c0.3,0,0.5,0,0.8-0.1
				c1.7-0.4,2.8-2.2,2.4-3.9C239.3,543,237.5,541.9,235.8,542.4z"/>
		</g>
	</g>
</g>
<g>
	<g>
		<path class="st0" d="M201.2,394.7c-1.2-1.2-3.4-1.2-4.6,0c-0.6,0.6-0.9,1.4-0.9,2.3c0,0.8,0.3,1.7,0.9,2.3c0.6,0.6,1.4,1,2.3,1
			c0.8,0,1.7-0.4,2.3-0.9c0.6-0.6,1-1.5,1-2.3C202.2,396.2,201.8,395.4,201.2,394.7z"/>
	</g>
</g>
<g>
	<g>
		<path class="st0" d="M201.2,394.7c-1.2-1.2-3.4-1.2-4.6,0c-0.6,0.6-0.9,1.4-0.9,2.3c0,0.8,0.3,1.7,0.9,2.3c0.6,0.6,1.5,1,2.3,1
			s1.7-0.4,2.3-1c0.6-0.6,1-1.4,1-2.3C202.2,396.2,201.8,395.4,201.2,394.7z"/>
	</g>
</g>
<g>
	<g>
		<g>
			<path class="st0" d="M46.7,290.3c1-1.5,0.6-3.5-0.8-4.5c-1.5-1-3.5-0.6-4.5,0.8c-1,1.5-0.6,3.5,0.8,4.5c0.6,0.4,1.2,0.6,1.8,0.6
				C45,291.7,46,291.2,46.7,290.3z"/>
			<path class="st0" d="M46.1,504.9c-1.5,1.1-1.7,3.1-0.7,4.5c0.6,0.8,1.6,1.3,2.6,1.3c0.6,0,1.3-0.2,1.9-0.6
				c1.5-1.1,1.7-3.1,0.7-4.5C49.6,504.1,47.5,503.8,46.1,504.9z"/>
			<path class="st0" d="M53.8,275.5c-1.4-1.1-3.4-0.9-4.6,0.5c-1.1,1.4-0.9,3.4,0.5,4.5c0.6,0.5,1.3,0.7,2,0.7c1,0,1.9-0.4,2.6-1.2
				C55.4,278.7,55.1,276.6,53.8,275.5z"/>
			<path class="st0" d="M62.3,265.8c-1.3-1.2-3.4-1.1-4.6,0.2c-1.2,1.3-1.1,3.4,0.2,4.6c0.6,0.6,1.4,0.8,2.2,0.8
				c0.9,0,1.7-0.4,2.4-1C63.8,269,63.7,267,62.3,265.8z"/>
			<path class="st0" d="M54,515.2c-1.4,1.2-1.5,3.2-0.4,4.6c0.6,0.7,1.6,1.1,2.5,1.1c0.7,0,1.5-0.3,2.1-0.8c1.4-1.2,1.5-3.2,0.4-4.6
				C57.4,514.2,55.4,514,54,515.2z"/>
			<path class="st0" d="M36.8,484.1c-0.9-1.6-2.9-2.1-4.4-1.3c-1.6,0.9-2.1,2.8-1.3,4.4c0,0,0,0,0,0c0.6,1.1,1.7,1.7,2.8,1.7
				c0.5,0,1.1-0.1,1.6-0.4C37.1,487.7,37.7,485.7,36.8,484.1L36.8,484.1z"/>
			<path class="st0" d="M38.9,494.1c-1.5,1-1.9,3-1,4.5c0.6,1,1.7,1.5,2.7,1.5c0.6,0,1.2-0.2,1.7-0.5c1.5-1,1.9-3,1-4.5
				C42.4,493.6,40.4,493.1,38.9,494.1z"/>
			<path class="st0" d="M26.1,461c-0.6-1.7-2.5-2.5-4.2-1.9c-1.7,0.6-2.5,2.5-1.9,4.2c0.5,1.3,1.7,2.1,3,2.1c0.4,0,0.8-0.1,1.1-0.2
				C25.9,464.5,26.8,462.7,26.1,461z"/>
			<path class="st0" d="M31.1,472.7c-0.7-1.6-2.7-2.3-4.3-1.6c-1.6,0.8-2.3,2.7-1.6,4.3c0,0,0,0,0,0c0.5,1.2,1.7,1.9,2.9,1.9
				c0.5,0,0.9-0.1,1.4-0.3C31.1,476.3,31.8,474.4,31.1,472.7z"/>
			<path class="st0" d="M62.7,524.9c-1.3,1.3-1.3,3.3,0,4.6c0.6,0.6,1.5,1,2.3,1c0.8,0,1.6-0.3,2.3-0.9c1.3-1.2,1.3-3.3,0-4.6
				C66,523.7,64,523.6,62.7,524.9z"/>
			<path class="st0" d="M91.9,240.4c-1-1.5-3.1-1.8-4.5-0.7c-1.5,1.1-1.8,3.1-0.7,4.5c0.6,0.9,1.7,1.4,2.7,1.4
				c0.6,0,1.3-0.2,1.9-0.6C92.6,243.9,92.9,241.9,91.9,240.4z"/>
			<path class="st0" d="M102.8,233.4c-0.9-1.5-2.9-2-4.5-1s-2,2.9-1,4.5c0.6,1,1.7,1.5,2.8,1.5c0.6,0,1.2-0.2,1.7-0.5
				C103.3,236.9,103.7,234.9,102.8,233.4z"/>
			<path class="st0" d="M107.6,556c-1.6-0.9-3.5-0.4-4.4,1.2c-0.9,1.6-0.4,3.5,1.2,4.4c0.5,0.3,1.1,0.4,1.6,0.4
				c1.1,0,2.2-0.6,2.8-1.7C109.7,558.8,109.2,556.8,107.6,556z"/>
			<path class="st0" d="M96.8,549.3c-1.5-1-3.5-0.6-4.5,0.9c-1,1.5-0.6,3.5,0.9,4.5c0.6,0.4,1.2,0.5,1.8,0.5c1,0,2.1-0.5,2.7-1.4
				C98.7,552.3,98.3,550.3,96.8,549.3z"/>
			<path class="st0" d="M126,221.7c-0.7-1.7-2.6-2.4-4.3-1.7c-1.6,0.7-2.4,2.6-1.7,4.3c0.5,1.2,1.7,1.9,3,1.9c0.4,0,0.9-0.1,1.3-0.3
				C125.9,225.2,126.7,223.3,126,221.7z"/>
			<path class="st0" d="M119,561.9c-1.6-0.8-3.6-0.1-4.3,1.5c-0.8,1.6-0.1,3.5,1.5,4.3c0.5,0.2,0.9,0.3,1.4,0.3
				c1.2,0,2.4-0.7,2.9-1.8C121.2,564.6,120.6,562.7,119,561.9z"/>
			<path class="st0" d="M81.5,248.2c-1.1-1.4-3.2-1.6-4.5-0.4c-1.4,1.1-1.6,3.2-0.5,4.5c0.6,0.8,1.6,1.2,2.5,1.2
				c0.7,0,1.5-0.3,2.1-0.7C82.4,251.6,82.6,249.6,81.5,248.2z"/>
			<path class="st0" d="M22,448.9c-0.5-1.7-2.3-2.7-4.1-2.2c-1.7,0.5-2.7,2.3-2.1,4c0.4,1.4,1.7,2.3,3.1,2.3c0.3,0,0.6-0.1,0.9-0.1
				C21.5,452.4,22.5,450.6,22,448.9z"/>
			<path class="st0" d="M72,534c-1.2,1.3-1.1,3.4,0.3,4.6c0.6,0.6,1.4,0.8,2.2,0.8c0.9,0,1.8-0.4,2.4-1.1c1.2-1.3,1.1-3.4-0.3-4.6
				C75.2,532.5,73.1,532.6,72,534z"/>
			<path class="st0" d="M71.6,256.7c-1.2-1.3-3.3-1.4-4.6-0.1c-1.3,1.2-1.4,3.3-0.1,4.6c0.6,0.6,1.5,1,2.4,1c0.8,0,1.6-0.3,2.2-0.9
				C72.8,260,72.8,258,71.6,256.7z"/>
			<path class="st0" d="M86.4,541.8c-1.4-1.1-3.5-0.8-4.5,0.6c-1.1,1.4-0.8,3.5,0.6,4.5c0.6,0.5,1.3,0.7,2,0.7c1,0,1.9-0.4,2.6-1.3
				C88.1,545,87.8,542.9,86.4,541.8z"/>
			<path class="st0" d="M114.2,227.1c-0.8-1.6-2.8-2.2-4.4-1.4c-1.6,0.8-2.2,2.8-1.4,4.4c0.6,1.1,1.7,1.7,2.9,1.7
				c0.5,0,1-0.1,1.5-0.4C114.4,230.7,115,228.7,114.2,227.1z"/>
			<path class="st0" d="M18.7,436.6c-0.4-1.7-2.1-2.8-3.9-2.4c-1.7,0.4-2.9,2.1-2.4,3.9c0.3,1.5,1.7,2.5,3.1,2.5
				c0.2,0,0.5,0,0.7-0.1C18,440.1,19.1,438.3,18.7,436.6z"/>
			<path class="st0" d="M369.3,323.3c0.5,1.2,1.7,2,3,2c0.4,0,0.8-0.1,1.2-0.3c1.7-0.7,2.4-2.6,1.7-4.2c-0.7-1.7-2.6-2.4-4.2-1.7
				C369.4,319.8,368.7,321.7,369.3,323.3z"/>
			<path class="st0" d="M377.6,347.4c0.4,1.5,1.7,2.4,3.1,2.4c0.3,0,0.6,0,0.8-0.1c1.7-0.5,2.8-2.2,2.3-4c0,0,0,0,0,0
				c-0.5-1.7-2.3-2.8-4-2.3C378.2,343.9,377.1,345.7,377.6,347.4z"/>
			<path class="st0" d="M360.6,302.1c0.6,0,1.1-0.1,1.7-0.5c1.5-0.9,2-2.9,1.1-4.4c0,0,0,0,0,0c-0.9-1.5-2.9-2-4.4-1.1
				c-1.5,0.9-2,2.9-1.1,4.5C358.4,301.6,359.5,302.1,360.6,302.1z"/>
			<path class="st0" d="M364,311.8c0.6,1.1,1.7,1.7,2.9,1.7c0.5,0,1-0.1,1.5-0.3c1.6-0.8,2.2-2.8,1.4-4.4c-0.8-1.6-2.8-2.2-4.3-1.4
				C363.8,308.2,363.2,310.1,364,311.8z"/>
			<path class="st0" d="M387.1,394.8c-1.8,0-3.3,1.4-3.3,3.2c0,1.8,1.4,3.3,3.2,3.3h0c1.8,0,3.2-1.4,3.2-3.2
				C390.3,396.3,388.9,394.8,387.1,394.8z"/>
			<path class="st0" d="M35.3,302.2c0.5,0.3,1.1,0.5,1.7,0.5c1.1,0,2.2-0.6,2.8-1.6c0.9-1.6,0.4-3.5-1.1-4.4
				c-1.6-0.9-3.5-0.4-4.4,1.1C33.3,299.3,33.8,301.3,35.3,302.2z"/>
			<path class="st0" d="M383,356.1c-1.8,0.4-2.9,2-2.6,3.8c0.3,1.6,1.7,2.6,3.2,2.6c0.2,0,0.4,0,0.6,0c1.8-0.4,2.9-2,2.6-3.8
				C386.5,356.9,384.8,355.8,383,356.1z"/>
			<path class="st0" d="M383.6,385.2c0.1,1.7,1.5,3.1,3.2,3.1c0.1,0,0.1,0,0.2,0c1.8-0.1,3.1-1.6,3.1-3.4c-0.1-1.8-1.6-3.2-3.4-3.1
				C384.8,381.9,383.5,383.4,383.6,385.2z"/>
			<path class="st0" d="M385.3,368.9c-1.8,0.2-3,1.8-2.8,3.6c0.2,1.6,1.6,2.9,3.2,2.9c0.1,0,0.3,0,0.4,0c1.8-0.2,3-1.8,2.8-3.6
				C388.6,370,387.1,368.7,385.3,368.9z"/>
			<path class="st0" d="M373.9,335.3c0.5,1.3,1.7,2.2,3,2.2c0.4,0,0.7-0.1,1.1-0.2c1.7-0.6,2.6-2.4,2-4.1c-0.6-1.7-2.4-2.6-4.1-2
				C374.2,331.7,373.3,333.5,373.9,335.3z"/>
			<path class="st0" d="M11.8,414.9c1.7-0.2,3.1-1.7,2.9-3.5c-0.2-1.8-1.7-3.1-3.5-2.9c-1.8,0.2-3.1,1.7-2.9,3.5
				c0.2,1.7,1.6,2.9,3.2,2.9C11.6,414.9,11.7,414.9,11.8,414.9z"/>
			<path class="st0" d="M10.9,388.9c0.1,0,0.1,0,0.2,0c1.7,0,3.1-1.4,3.2-3.1c0.1-1.8-1.3-3.3-3.1-3.4s-3.3,1.3-3.4,3.1
				C7.7,387.3,9.1,388.8,10.9,388.9z"/>
			<path class="st0" d="M11.8,376c0.1,0,0.3,0,0.4,0c1.6,0,3-1.2,3.2-2.9c0.2-1.8-1.1-3.4-2.8-3.6c-1.8-0.2-3.4,1.1-3.6,2.9
				C8.7,374.1,10,375.8,11.8,376z"/>
			<path class="st0" d="M29.3,313.7c0.5,0.3,1,0.4,1.5,0.4c1.2,0,2.3-0.6,2.9-1.8c0.8-1.6,0.2-3.6-1.4-4.3c-1.6-0.8-3.6-0.2-4.4,1.4
				C27,311,27.7,312.9,29.3,313.7z"/>
			<path class="st0" d="M13.6,427.8c1.7-0.3,3-1.9,2.7-3.7c-0.3-1.7-1.9-3-3.7-2.7c-1.8,0.3-3,1.9-2.7,3.7c0.2,1.6,1.6,2.8,3.2,2.8
				C13.3,427.8,13.4,427.8,13.6,427.8z"/>
			<path class="st0" d="M19.7,337.9c0.4,0.1,0.7,0.2,1,0.2c1.4,0,2.6-0.8,3.1-2.2c0.6-1.7-0.3-3.5-2-4.1c-1.7-0.6-3.5,0.4-4.1,2
				C17.1,335.5,18,337.3,19.7,337.9z"/>
			<path class="st0" d="M24.1,325.6c0.4,0.2,0.8,0.3,1.2,0.3c1.3,0,2.5-0.8,3-2c0.7-1.7-0.1-3.5-1.7-4.2c-1.7-0.7-3.6,0.1-4.2,1.7
				C21.6,323,22.4,324.9,24.1,325.6z"/>
			<path class="st0" d="M13.5,363.1c0.2,0,0.4,0.1,0.6,0.1c1.5,0,2.9-1.1,3.2-2.6c0.3-1.8-0.8-3.5-2.6-3.8c-1.7-0.4-3.4,0.8-3.8,2.6
				c0,0,0,0,0,0C10.6,361.1,11.8,362.8,13.5,363.1z"/>
			<path class="st0" d="M16.2,350.4c0.3,0.1,0.6,0.1,0.8,0.1c1.4,0,2.8-1,3.1-2.4c0.5-1.7-0.6-3.5-2.3-4c-1.7-0.5-3.5,0.6-4,2.3
				C13.4,348.2,14.4,349.9,16.2,350.4z"/>
			<path class="st0" d="M10.9,401.9C10.9,401.9,10.9,401.9,10.9,401.9c1.8,0,3.3-1.5,3.2-3.3c0-1.8-1.5-3.2-3.3-3.2
				c-1.8,0-3.2,1.5-3.2,3.3C7.7,400.5,9.1,401.9,10.9,401.9z"/>
			<path class="st0" d="M331,524.5c-1.3,1.3-1.2,3.3,0,4.6c0.6,0.6,1.5,0.9,2.3,0.9c0.8,0,1.7-0.3,2.3-1c1.2-1.3,1.2-3.3-0.1-4.6
				C334.3,523.2,332.2,523.3,331,524.5z"/>
			<path class="st0" d="M330.4,256.1c-1.3-1.2-3.3-1.2-4.6,0.1c-1.2,1.3-1.2,3.3,0.1,4.6c0.6,0.6,1.4,0.9,2.2,0.9
				c0.8,0,1.7-0.4,2.3-1C331.8,259.4,331.7,257.4,330.4,256.1z"/>
			<path class="st0" d="M321.8,533.4c-1.4,1.2-1.5,3.2-0.3,4.6c0.6,0.7,1.5,1.1,2.4,1.1c0.8,0,1.5-0.3,2.2-0.8
				c1.3-1.2,1.4-3.2,0.3-4.6C325.1,532.3,323.1,532.2,321.8,533.4z"/>
			<path class="st0" d="M348.3,275.6c-1.1-1.4-3.2-1.6-4.6-0.5c-1.4,1.1-1.6,3.2-0.5,4.6c0.6,0.8,1.6,1.2,2.5,1.2
				c0.7,0,1.4-0.2,2-0.7C349.2,279,349.4,277,348.3,275.6z"/>
			<path class="st0" d="M339.7,265.5c-1.2-1.3-3.3-1.4-4.6-0.2c-1.3,1.2-1.4,3.2-0.2,4.6c0.6,0.7,1.5,1,2.4,1c0.8,0,1.6-0.3,2.2-0.8
				C340.9,268.9,340.9,266.9,339.7,265.5z"/>
			<path class="st0" d="M299,232c-1.5-0.9-3.5-0.5-4.5,1.1s-0.5,3.5,1.1,4.5v0c0.6,0.4,1.1,0.5,1.7,0.5c1.1,0,2.1-0.6,2.8-1.5
				C301,235,300.5,233,299,232z"/>
			<path class="st0" d="M320.5,247.4c-1.4-1.1-3.4-0.9-4.6,0.5c-1.1,1.4-0.9,3.4,0.4,4.6c0.6,0.5,1.4,0.7,2.1,0.7
				c0.9,0,1.8-0.4,2.5-1.2C322.1,250.6,321.9,248.5,320.5,247.4z"/>
			<path class="st0" d="M310,239.4c-1.5-1.1-3.5-0.7-4.5,0.7c-1,1.5-0.7,3.5,0.8,4.5c0.6,0.4,1.2,0.6,1.9,0.6c1,0,2-0.5,2.6-1.4
				C311.8,242.4,311.5,240.4,310,239.4z"/>
			<path class="st0" d="M301.6,549c-1.5,1-1.9,3-0.9,4.5c0.6,0.9,1.7,1.5,2.7,1.5c0.6,0,1.3-0.2,1.8-0.6c1.5-1,1.9-3,0.9-4.5
				C305,548.4,303,548,301.6,549z"/>
			<path class="st0" d="M311.9,541.5c-1.4,1.1-1.7,3.1-0.6,4.5c0.6,0.8,1.6,1.3,2.6,1.3c0.7,0,1.4-0.2,2-0.7
				c1.4-1.1,1.7-3.1,0.6-4.5C315.4,540.7,313.3,540.4,311.9,541.5z"/>
			<path class="st0" d="M339.6,515.1c-1.2,1.4-1,3.4,0.4,4.6c0.6,0.6,1.4,0.8,2.1,0.8c0.9,0,1.8-0.4,2.5-1.1c1.2-1.4,1-3.4-0.4-4.6
				C342.8,513.6,340.8,513.7,339.6,515.1z"/>
			<path class="st0" d="M380.1,446.1c-1.7-0.5-3.5,0.5-4,2.2c-0.5,1.7,0.5,3.5,2.2,4c0.3,0.1,0.6,0.1,0.9,0.1c1.4,0,2.7-0.9,3.1-2.3
				C382.8,448.5,381.8,446.6,380.1,446.1z"/>
			<path class="st0" d="M383.2,433.5c-1.7-0.4-3.5,0.7-3.9,2.4c-0.4,1.7,0.7,3.5,2.4,3.9c0.3,0,0.5,0.1,0.7,0.1c1.5,0,2.8-1,3.2-2.5
				C386,435.6,384.9,433.9,383.2,433.5z"/>
			<path class="st0" d="M386.7,407.8c-1.8-0.1-3.3,1.2-3.5,3c-0.2,1.8,1.2,3.3,2.9,3.5c0.1,0,0.2,0,0.3,0c1.7,0,3.1-1.3,3.2-2.9
				C389.8,409.5,388.4,407.9,386.7,407.8z"/>
			<path class="st0" d="M352.1,504.5c-1.4-1.1-3.5-0.7-4.5,0.7c-1.1,1.4-0.7,3.5,0.7,4.5c0.6,0.4,1.3,0.6,1.9,0.6
				c1,0,1.9-0.5,2.6-1.3C353.8,507.6,353.5,505.5,352.1,504.5z"/>
			<path class="st0" d="M385.4,420.7c-1.8-0.3-3.4,0.9-3.7,2.7c-0.3,1.8,0.9,3.4,2.7,3.7c0.2,0,0.4,0,0.5,0c1.6,0,2.9-1.1,3.2-2.8
				C388.4,422.6,387.1,421,385.4,420.7z"/>
			<path class="st0" d="M376.2,458.5c-1.7-0.6-3.6,0.2-4.2,1.9c-0.6,1.7,0.2,3.5,1.9,4.1c0.4,0.2,0.7,0.2,1.1,0.2
				c1.3,0,2.6-0.8,3-2.1C378.7,461,377.8,459.2,376.2,458.5z"/>
			<path class="st0" d="M130.7,567c-1.7-0.6-3.6,0.2-4.2,1.8c-0.7,1.7,0.1,3.6,1.8,4.2c0.4,0.2,0.8,0.2,1.2,0.2c1.3,0,2.5-0.8,3-2
				C133.1,569.6,132.3,567.7,130.7,567z"/>
			<path class="st0" d="M371.3,470.6c-1.6-0.7-3.5,0-4.3,1.6c-0.7,1.6,0,3.5,1.6,4.3c0.4,0.2,0.9,0.3,1.3,0.3c1.2,0,2.4-0.7,2.9-1.9
				C373.7,473.3,373,471.3,371.3,470.6z"/>
			<path class="st0" d="M359.3,493.6c-1.5-1-3.5-0.5-4.5,1c-1,1.5-0.5,3.5,1,4.5c0.6,0.4,1.2,0.5,1.7,0.5c1.1,0,2.1-0.5,2.7-1.5
				C361.2,496.6,360.8,494.6,359.3,493.6z"/>
			<path class="st0" d="M365.7,482.3c-1.6-0.8-3.5-0.3-4.4,1.3c-0.9,1.6-0.3,3.5,1.3,4.4c0.5,0.3,1,0.4,1.5,0.4
				c1.2,0,2.3-0.6,2.9-1.7C367.9,485.1,367.3,483.2,365.7,482.3z"/>
			<path class="st0" d="M356.2,286.1c-1-1.5-3-1.8-4.5-0.8c-1.5,1-1.8,3-0.8,4.5c0.6,0.9,1.7,1.4,2.7,1.4c0.6,0,1.3-0.2,1.8-0.6
				C356.9,289.6,357.2,287.6,356.2,286.1z"/>
			<path class="st0" d="M180.1,579.1c-1.8-0.2-3.4,1.1-3.6,2.9c-0.2,1.8,1.1,3.4,2.9,3.6c0.1,0,0.2,0,0.3,0c1.7,0,3.1-1.2,3.2-2.9
				C183.2,580.8,181.9,579.3,180.1,579.1z"/>
			<path class="st0" d="M167.5,577.4c-1.7-0.3-3.4,0.9-3.7,2.7c-0.3,1.7,0.9,3.4,2.7,3.7c0,0,0,0,0,0c0.2,0,0.4,0,0.6,0
				c1.5,0,2.9-1.1,3.2-2.7C170.4,579.4,169.3,577.7,167.5,577.4z"/>
			<path class="st0" d="M218.4,579c-1.8,0.2-3.1,1.8-2.9,3.6c0.2,1.7,1.6,2.9,3.2,2.9c0.1,0,0.2,0,0.4,0c1.8-0.2,3.1-1.8,2.9-3.6
				C221.7,580.1,220.2,578.8,218.4,579z"/>
			<path class="st0" d="M159.4,207.9c-1.8,0.4-2.9,2.1-2.5,3.8c0.3,1.5,1.7,2.6,3.2,2.6c0.2,0,0.5,0,0.7-0.1
				c1.7-0.4,2.9-2.1,2.5-3.8C162.8,208.7,161.1,207.5,159.4,207.9z"/>
			<path class="st0" d="M205.6,579.9c-1.8,0.1-3.2,1.6-3.1,3.4c0,1.7,1.5,3.1,3.2,3.1c0.1,0,0.1,0,0.1,0c1.8-0.1,3.2-1.6,3.1-3.3
				C209,581.3,207.4,579.8,205.6,579.9z"/>
			<path class="st0" d="M192.9,579.9c-1.8-0.1-3.3,1.4-3.3,3.1c-0.1,1.8,1.3,3.3,3.1,3.3c0,0,0.1,0,0.1,0c1.7,0,3.2-1.4,3.3-3.1
				C196.1,581.5,194.7,580,192.9,579.9z"/>
			<path class="st0" d="M142.7,571.3c-1.7-0.6-3.5,0.4-4.1,2.1c-0.6,1.7,0.4,3.5,2.1,4.1c0.4,0.1,0.7,0.1,1,0.1
				c1.4,0,2.7-0.9,3.1-2.2C145.4,573.7,144.4,571.9,142.7,571.3z"/>
			<path class="st0" d="M133.9,215.1c-1.7,0.6-2.6,2.5-1.9,4.1c0.5,1.3,1.7,2.1,3,2.1c0.4,0,0.7-0.1,1.1-0.2
				c1.7-0.6,2.6-2.5,1.9-4.1C137.5,215.4,135.6,214.5,133.9,215.1z"/>
			<path class="st0" d="M146.5,211.1c-1.7,0.5-2.7,2.3-2.2,4c0.4,1.4,1.7,2.3,3.1,2.3c0.3,0,0.6,0,0.9-0.1c1.7-0.5,2.7-2.3,2.2-4
				C150,211.6,148.3,210.6,146.5,211.1z"/>
			<path class="st0" d="M155,574.8c-1.7-0.4-3.5,0.6-3.9,2.4c-0.4,1.7,0.6,3.5,2.4,3.9c0.3,0.1,0.5,0.1,0.8,0.1c1.5,0,2.8-1,3.1-2.5
				C157.8,577,156.7,575.2,155,574.8z"/>
			<path class="st0" d="M243.5,574.6c-1.7,0.4-2.8,2.2-2.4,3.9c0.4,1.5,1.7,2.5,3.1,2.5c0.3,0,0.5,0,0.8-0.1
				c1.7-0.4,2.8-2.2,2.4-3.9C247,575.3,245.2,574.2,243.5,574.6z"/>
			<path class="st0" d="M263.3,214.9c-1.7-0.6-3.5,0.3-4.1,2c-0.6,1.7,0.3,3.5,1.9,4.1h0c0.4,0.1,0.7,0.2,1.1,0.2
				c1.3,0,2.6-0.8,3-2.2C265.9,217.4,265,215.5,263.3,214.9z"/>
			<path class="st0" d="M275.6,219.8c-1.6-0.7-3.5,0-4.3,1.7c-0.7,1.6,0,3.5,1.7,4.2c0.4,0.2,0.9,0.3,1.3,0.3c1.3,0,2.4-0.7,3-1.9
				C278,222.4,277.3,220.5,275.6,219.8z"/>
			<path class="st0" d="M267.8,566.8c-1.7,0.7-2.5,2.6-1.8,4.2c0.5,1.3,1.7,2,3,2c0.4,0,0.8-0.1,1.2-0.2c1.7-0.7,2.5-2.6,1.8-4.2
				C271.3,566.9,269.4,566.1,267.8,566.8z"/>
			<path class="st0" d="M279.5,561.6c-1.6,0.8-2.3,2.7-1.5,4.3c0.6,1.1,1.7,1.8,2.9,1.8c0.5,0,0.9-0.1,1.4-0.3
				c1.6-0.8,2.3-2.7,1.5-4.3C283,561.5,281.1,560.9,279.5,561.6z"/>
			<path class="st0" d="M231,577.3c-1.7,0.3-2.9,2-2.6,3.7c0.3,1.6,1.7,2.7,3.2,2.7c0.2,0,0.4,0,0.6-0.1c1.7-0.3,2.9-2,2.6-3.7
				C234.5,578.1,232.8,577,231,577.3z"/>
			<path class="st0" d="M287.5,225.5c-1.6-0.8-3.5-0.2-4.4,1.4c-0.8,1.6-0.2,3.5,1.4,4.4c0.5,0.3,1,0.4,1.5,0.4
				c1.2,0,2.3-0.6,2.9-1.7C289.7,228.3,289.1,226.3,287.5,225.5z"/>
			<path class="st0" d="M290.7,555.7c-1.6,0.9-2.1,2.9-1.2,4.4c0.6,1,1.7,1.6,2.8,1.6c0.6,0,1.1-0.1,1.6-0.4
				c1.6-0.9,2.1-2.9,1.2-4.4C294.3,555.3,292.3,554.8,290.7,555.7z"/>
			<path class="st0" d="M237.9,207.8C237.9,207.8,237.9,207.8,237.9,207.8c-1.8-0.4-3.5,0.8-3.9,2.5c-0.4,1.7,0.8,3.5,2.5,3.8
				c0.2,0,0.5,0.1,0.6,0.1c1.5,0,2.9-1,3.2-2.6C240.7,209.8,239.6,208.1,237.9,207.8z"/>
			<path class="st0" d="M250.7,210.9c-1.7-0.5-3.5,0.5-4,2.2c-0.5,1.7,0.5,3.5,2.2,4c0.3,0.1,0.6,0.1,0.9,0.1c1.4,0,2.7-0.9,3.1-2.4
				C253.4,213.2,252.4,211.4,250.7,210.9z"/>
			<path class="st0" d="M255.8,571.1c-1.7,0.6-2.7,2.4-2.1,4.1c0.5,1.4,1.7,2.2,3.1,2.2c0.3,0,0.7,0,1-0.1c1.7-0.6,2.6-2.4,2.1-4.1
				C259.3,571.5,257.5,570.6,255.8,571.1z"/>
		</g>
	</g>
</g>
<g>
	<g>
		<path class="st0" d="M201.2,394.7c-1.2-1.2-3.4-1.2-4.6,0c-0.6,0.6-0.9,1.4-0.9,2.3c0,0.8,0.4,1.7,0.9,2.3c0.6,0.6,1.5,1,2.3,1
			s1.7-0.4,2.3-1c0.6-0.6,0.9-1.4,0.9-2.3C202.2,396.2,201.8,395.4,201.2,394.7z"/>
	</g>
</g>
<g>
	<g>
		<path class="st0" d="M256.3,356.6c-1-1.5-3.1-1.8-4.5-0.8c-1.5,1-1.8,3.1-0.8,4.5c7.6,10.8,11.6,23.5,11.6,36.7
			c0,35.1-28.6,63.7-63.7,63.7c-35.1,0-63.7-28.6-63.7-63.7c0-35.1,28.6-63.7,63.7-63.7c11.8,0,23.3,3.3,33.3,9.4
			c1.5,0.9,3.5,0.5,4.5-1.1c0.9-1.5,0.5-3.5-1.1-4.5c-11-6.8-23.7-10.4-36.7-10.4c-38.7,0-70.2,31.5-70.2,70.2s31.5,70.2,70.2,70.2
			c38.7,0,70.2-31.5,70.2-70.2C269.1,382.5,264.7,368.5,256.3,356.6z"/>
	</g>
</g>
<g>
	<g>
		<path class="st0" d="M198.9,170.8c-15.9,0-28.8,12.9-28.8,28.8s12.9,28.8,28.8,28.8s28.8-12.9,28.8-28.8S214.8,170.8,198.9,170.8z
			 M198.9,221.9c-12.3,0-22.3-10-22.3-22.3s10-22.3,22.3-22.3s22.3,10,22.3,22.3S211.2,221.9,198.9,221.9z"/>
	</g>
</g>
<g>
	<g>
		<path class="st0" d="M354.2,381.9c-7.1,0-12.9,5.8-12.9,12.9c0,7.1,5.8,12.9,12.9,12.9c7.1,0,12.9-5.8,12.9-12.9
			S361.3,381.9,354.2,381.9z M354.2,401.2c-3.5,0-6.4-2.9-6.4-6.4s2.9-6.4,6.4-6.4c3.5,0,6.4,2.9,6.4,6.4
			C360.6,398.3,357.7,401.2,354.2,401.2z"/>
	</g>
</g>
<g>
	<g>
		<path class="st0" d="M99.4,501.4c-2.9-2.9-8.2-2.9-11.2,0c-1.4,1.5-2.3,3.5-2.3,5.6c0,2.1,0.9,4.1,2.3,5.5
			c1.5,1.5,3.6,2.4,5.6,2.4s4.1-0.9,5.6-2.4c1.4-1.4,2.3-3.5,2.3-5.5C101.7,504.8,100.8,502.9,99.4,501.4z"/>
	</g>
</g>
</svg>
